# xmcd
# Copyright (C) 1995-1998 Ti Kan
#
# Track frame offsets:
#       150
#       9026
#       20778
#       30080
#       43050
#       52610
#       60765
#       73178
#       82561
#       93499
#       106565
#       112137
#       124047
#
# Disc length: 1831 seconds
#
# Revision: 0
# Processed by: cddbd v1.5.2PL0 Copyright (c) Steve Scherf et al.
# Submitted via: CD-Import v1.0
#
DISCID=8807250d
DTITLE=Urban Junior - Two Headed Demon
DYEAR=2010
DGENRE=
TTITLE0=Hot Shit From Switzerland
TTITLE1=With The Idiots
TTITLE2=Man On The Run
TTITLE3=Two Headed Demon
TTITLE4=Tüüfumusig
TTITLE5=Separated
TTITLE6=Das Leben
TTITLE7=Girl Like You
TTITLE8=Heidi's Head
TTITLE9=Du Los Emau
TTITLE10=Mensch Oder Tier
TTITLE11=No Balls But Fire
TTITLE12=We Love Urband Jr.
EXTD=
EXTT0=
EXTT1=
EXTT2=
EXTT3=
EXTT4=
EXTT5=
EXTT6=
EXTT7=
EXTT8=
EXTT9=
EXTT10=
EXTT11=
EXTT12=
PLAYORDER=
